<svg width="12" height="17" viewBox="0 0 12 17" fill="none" xmlns="http://www.w3.org/2000/svg">
<path fill-rule="evenodd" clip-rule="evenodd" d="M7.13674 1.3367C7.77115 1.3367 8.36621 1.41953 8.9172 1.57315C8.37777 0.348685 7.25778 0 6.01132 0C4.76241 0 3.64047 0.350055 3.10227 1.58037C3.6492 1.42134 4.24171 1.3367 4.87397 1.3367H7.13674ZM4.72885 2.56602C1.71639 2.56602 0 4.87421 0 7.72152V10.6464C0 10.9312 0.244208 11.1564 0.545455 11.1564H11.4545C11.7558 11.1564 12 10.9312 12 10.6464V7.72152C12 4.87421 10.0041 2.56602 6.99163 2.56602H4.72885ZM5.99574 7.74682C7.0501 7.74682 7.90483 6.91433 7.90483 5.88741C7.90483 4.86049 7.0501 4.02801 5.99574 4.02801C4.94137 4.02801 4.08665 4.86049 4.08665 5.88741C4.08665 6.91433 4.94137 7.74682 5.99574 7.74682ZM0 12.8756C0 12.5909 0.244208 12.3601 0.545455 12.3601H11.4545C11.7558 12.3601 12 12.5909 12 12.8756V15.9689C12 16.5383 11.5116 17 10.9091 17H1.09091C0.488416 17 0 16.5383 0 15.9689V12.8756Z" fill="#E33E3F"/>
</svg>
