<svg width="20" height="20" viewBox="0 0 20 20" fill="none" xmlns="http://www.w3.org/2000/svg">
<path d="M10 20C15.5228 20 20 15.5228 20 10C20 4.47715 15.5228 0 10 0C4.47715 0 0 4.47715 0 10C0 15.5228 4.47715 20 10 20Z" fill="#FDDE00"/>
<path d="M5.38938 6.42382C5.38938 6.42382 4.84798 7.10878 5.02845 10.2055C5.02845 10.2055 3.8431 13.2406 4.24505 14.791C4.647 16.3373 6.2138 16.2594 6.2138 16.2594C6.2138 16.2594 8.72806 18.4701 10.6558 16.5219C12.5876 14.5695 9.04798 7.01034 9.04798 7.01034L8.60501 4.39764C8.60501 4.39764 8.12102 4.77909 8.18255 7.29335C8.24407 9.8076 7.19817 8.03573 7.19817 8.03573L5.38938 6.42382Z" fill="#3C2D0C"/>
<path d="M5.59031 9.15954L4.92586 11.0299L4.68387 12.3383C4.68387 12.3383 3.85945 15.2545 7.25965 15.2134C7.25965 15.2134 9.91336 17.5883 11.6442 15.9968L12.1077 15.4924L12.9116 14.2455L14.2405 10.2834C14.2405 10.2834 13.818 7.56813 11.1438 6.44431C11.1438 6.44431 10.9223 6.32536 10.5204 6.48532C10.5204 6.48532 9.41297 3.99157 8.7116 4.29509C8.7116 4.29509 8.10867 4.61501 8.62957 7.07184L7.68621 7.49431C7.68621 7.49431 6.65262 5.53376 5.69695 5.92751C4.80691 6.28434 5.59031 9.15954 5.59031 9.15954Z" fill="#E78C19"/>
<path d="M9.0277 5.51742L9.10974 6.60434C9.10974 6.60434 9.17126 7.22777 9.83161 7.00629C10.0203 6.94477 10.1843 6.81352 10.1679 6.60023C10.1556 6.44027 10.0449 6.29262 9.97106 6.15727C9.83571 5.89887 9.72497 5.62406 9.56501 5.37387C9.48298 5.24672 9.31481 4.96371 9.13024 4.99652C9.13024 4.99652 8.99079 4.95551 9.0277 5.51742Z" fill="#EFB99D"/>
<path d="M6.12362 6.73964C6.13592 6.73144 6.40663 6.39101 6.96854 7.21953C7.53045 8.04804 7.47303 7.9414 7.47303 7.9414C7.47303 7.9414 7.77655 8.27363 7.15721 8.70019C7.02186 8.79863 6.8742 8.88066 6.71835 8.94628C6.61991 8.9832 6.51737 9.00371 6.41483 9.00371C6.29588 8.9996 6.24256 8.93808 6.21385 8.82734C6.11952 8.4664 6.01288 8.10546 5.95956 7.73632C5.91854 7.44921 5.83651 6.92421 6.12362 6.73964Z" fill="#EFB99D"/>
<path d="M12.6534 8.40898C12.6534 8.60586 12.3663 8.76582 12.0094 8.76582C11.6526 8.76582 11.3655 8.60586 11.3655 8.40898C11.3655 8.21211 11.6608 7.9209 12.0135 7.9209C12.3663 7.9209 12.6534 8.21211 12.6534 8.40898Z" fill="#FBFBFB"/>
<path d="M8.93957 9.94961C9.13034 9.61249 9.1092 9.23972 8.89234 9.117C8.67548 8.99428 8.34503 9.16809 8.15426 9.5052C7.96349 9.84232 7.98464 10.2151 8.20149 10.3378C8.41835 10.4605 8.7488 10.2867 8.93957 9.94961Z" fill="#FBFBFB"/>
<path d="M9.85175 11.5795L11.6113 10.6648C11.6113 10.6648 13.8016 9.5205 14.3348 10.4023C14.868 11.2842 14.3348 12.6336 14.3348 12.6336C14.3348 12.6336 14.1051 14.2127 12.4932 14.3521L11.6277 14.4711L10.5203 14.4998C10.5203 14.4998 8.74022 14.6023 7.43183 13.6344L7.01757 13.1299C7.01757 13.1299 6.18495 11.9855 6.76737 11.1611C7.34979 10.3367 9.34315 11.6123 9.34315 11.6123C9.34315 11.6123 9.62206 11.7641 9.85175 11.5795Z" fill="#FBFBFB"/>
<path d="M13.8429 7.01857C14.0762 7.01857 14.2653 6.82942 14.2653 6.59611C14.2653 6.36279 14.0762 6.17365 13.8429 6.17365C13.6096 6.17365 13.4204 6.36279 13.4204 6.59611C13.4204 6.82942 13.6096 7.01857 13.8429 7.01857Z" fill="#E72D36"/>
<path d="M12.9076 5.98085C13.1409 5.98085 13.33 5.7917 13.33 5.55839C13.33 5.32507 13.1409 5.13593 12.9076 5.13593C12.6743 5.13593 12.4851 5.32507 12.4851 5.55839C12.4851 5.7917 12.6743 5.98085 12.9076 5.98085Z" fill="#E72D36"/>
<path d="M11.4105 5.64863C11.6438 5.64863 11.833 5.45949 11.833 5.22617C11.833 4.99285 11.6438 4.80371 11.4105 4.80371C11.1772 4.80371 10.988 4.99285 10.988 5.22617C10.988 5.45949 11.1772 5.64863 11.4105 5.64863Z" fill="#E72D36"/>
<path d="M11.7428 2.23206C11.833 3.47893 11.6525 4.60686 11.349 4.60686C11.0455 4.60686 10.6436 3.3887 10.6436 2.23206C10.6436 1.75627 10.8938 1.67834 11.1973 1.67834C11.5049 1.67834 11.71 1.75627 11.7428 2.23206Z" fill="#E72D36"/>
<path d="M14.54 3.00726C14.0806 4.168 13.4284 5.10725 13.1577 4.97601C12.887 4.84476 13.0511 3.57327 13.5556 2.53147C13.7648 2.10081 14.0232 2.14183 14.2939 2.27308C14.5646 2.40843 14.7163 2.56429 14.54 3.00726Z" fill="#E72D36"/>
<path d="M16.5416 5.27128C15.5285 6.00546 14.4785 6.44843 14.3185 6.19003C14.1586 5.93163 14.983 4.95136 15.9633 4.34022C16.3693 4.09003 16.5662 4.26229 16.7262 4.51659C16.882 4.77499 16.9271 4.98827 16.5416 5.27128Z" fill="#E72D36"/>
<path d="M9.76989 10.3531C9.73298 10.3572 9.69606 10.3613 9.65915 10.3654C9.66325 10.3778 9.66735 10.3901 9.66735 10.4065C9.66735 10.5336 9.46637 10.6403 9.21618 10.6485C9.21618 10.6608 9.21208 10.669 9.21618 10.6813C9.22848 10.8371 9.49919 10.9438 9.81501 10.9192C10.1349 10.8945 10.3851 10.7469 10.3728 10.591C10.3564 10.4352 10.0898 10.3285 9.76989 10.3531Z" fill="black"/>
<path d="M11.993 9.80352C11.9561 9.80762 11.9192 9.81172 11.8823 9.81582C11.8864 9.82813 11.8905 9.84043 11.8905 9.85684C11.8905 9.98399 11.6895 10.0906 11.4393 10.0988C11.4393 10.1111 11.4352 10.1193 11.4393 10.1316C11.4516 10.2875 11.7223 10.3941 12.0382 10.3695C12.3581 10.3449 12.6083 10.1973 12.596 10.0414C12.5837 9.88555 12.313 9.77891 11.993 9.80352Z" fill="black"/>
<path d="M12.7232 10.4557C12.7232 10.4557 11.8413 10.7141 11.8947 11.2104C11.948 11.7066 13.0103 11.965 13.0103 11.965C13.0103 11.965 13.2974 12.0799 13.4615 11.8051C13.6255 11.5344 13.8675 11.1652 13.8019 10.6361C13.8019 10.6361 13.7814 10.2424 12.7232 10.4557Z" fill="black"/>
</svg>
