<svg width="16" height="20" viewBox="0 0 16 20" fill="none" xmlns="http://www.w3.org/2000/svg">
<path d="M13.7529 12C14.0484 12 14.341 12.0582 14.6139 12.1713C14.8869 12.2843 15.135 12.4501 15.3439 12.659C15.5528 12.8679 15.7186 13.116 15.8316 13.389C15.9447 13.6619 16.0029 13.9545 16.0029 14.25V15.154C16.003 15.6946 15.8863 16.2287 15.6607 16.72C15.4351 17.2112 15.106 17.6478 14.6959 18C13.1309 19.344 10.8899 20 7.99991 20C5.10991 20 2.87191 19.344 1.30991 18C0.900368 17.6481 0.571659 17.2119 0.346257 16.7212C0.120855 16.2305 0.00407629 15.697 0.00390625 15.157V14.249C0.00417139 13.6524 0.241341 13.0804 0.663269 12.6587C1.0852 12.2369 1.65734 12 2.25391 12H13.7529ZM7.99991 0C8.18114 7.6429e-06 8.35625 0.0656426 8.49284 0.184767C8.62943 0.303891 8.71826 0.468446 8.74291 0.648L8.74991 0.75L8.74891 1.499H12.2489C12.8456 1.499 13.4179 1.73605 13.8399 2.15801C14.2619 2.57997 14.4989 3.15226 14.4989 3.749V8.254C14.4989 8.85074 14.2619 9.42303 13.8399 9.84499C13.4179 10.2669 12.8456 10.504 12.2489 10.504H3.74891C3.15217 10.504 2.57987 10.2669 2.15792 9.84499C1.73596 9.42303 1.49891 8.85074 1.49891 8.254V3.75C1.49891 3.45444 1.55714 3.16178 1.67027 2.88873C1.78341 2.61568 1.94923 2.3676 2.15827 2.15866C2.36731 1.94971 2.61546 1.784 2.88856 1.67098C3.16166 1.55797 3.45435 1.49987 3.74991 1.5L7.24991 1.499V0.75C7.24995 0.568612 7.31572 0.393385 7.43505 0.256774C7.55438 0.120164 7.71917 0.0314269 7.89891 0.00699997L7.99991 0ZM5.74891 4.5C5.58068 4.49327 5.41283 4.52059 5.25542 4.58032C5.09801 4.64005 4.95429 4.73097 4.83289 4.84762C4.71148 4.96426 4.61489 5.10423 4.54891 5.25912C4.48293 5.41401 4.44892 5.58064 4.44892 5.749C4.44892 5.91736 4.48293 6.08399 4.54891 6.23888C4.61489 6.39377 4.71148 6.53374 4.83289 6.65038C4.95429 6.76703 5.09801 6.85794 5.25542 6.91768C5.41283 6.97741 5.58068 7.00473 5.74891 6.998C6.07151 6.98509 6.37661 6.84785 6.6003 6.61503C6.82399 6.38221 6.94892 6.07187 6.94892 5.749C6.94892 5.42613 6.82399 5.11579 6.6003 4.88297C6.37661 4.65015 6.07151 4.51291 5.74891 4.5ZM10.2419 4.5C10.0737 4.49327 9.90583 4.52059 9.74842 4.58032C9.59101 4.64005 9.44729 4.73097 9.32589 4.84762C9.20448 4.96426 9.10789 5.10423 9.04191 5.25912C8.97593 5.41401 8.94192 5.58064 8.94192 5.749C8.94192 5.91736 8.97593 6.08399 9.04191 6.23888C9.10789 6.39377 9.20448 6.53374 9.32589 6.65038C9.44729 6.76703 9.59101 6.85794 9.74842 6.91768C9.90583 6.97741 10.0737 7.00473 10.2419 6.998C10.5645 6.98509 10.8696 6.84785 11.0933 6.61503C11.317 6.38221 11.4419 6.07187 11.4419 5.749C11.4419 5.42613 11.317 5.11579 11.0933 4.88297C10.8696 4.65015 10.5645 4.51291 10.2419 4.5Z" fill="#65636D"/>
</svg>
