<svg width="20" height="20" viewBox="0 0 20 20" fill="none" xmlns="http://www.w3.org/2000/svg">
<path d="M10 20C15.5228 20 20 15.5228 20 10C20 4.47715 15.5228 0 10 0C4.47715 0 0 4.47715 0 10C0 15.5228 4.47715 20 10 20Z" fill="#F7931A"/>
<path d="M14.3799 7.50941C14.4761 8.59338 14.0328 9.23828 13.3284 9.60004C14.4832 9.89814 15.204 10.6134 15.0521 12.2C14.8632 14.1704 13.4335 14.6857 11.3948 14.7878L11.3817 16.8593L10.1699 16.848L10.1821 14.803C9.85926 14.8004 9.53725 14.7944 9.2143 14.7845L9.20171 16.8379L7.9915 16.8262L8.00346 14.7501C7.71925 14.7456 7.43102 14.738 7.1374 14.735L5.55928 14.7194L5.80887 13.2306C5.80887 13.2306 6.70522 13.2531 6.68976 13.2396C7.03349 13.2412 7.12553 12.9885 7.14825 12.8297L7.16725 9.55446L7.29603 9.55539C7.25384 9.54916 7.21068 9.54563 7.1675 9.54538L7.18136 7.20713C7.13638 6.95308 6.97823 6.65824 6.48635 6.653C6.50201 6.63693 5.60661 6.64534 5.60661 6.64534L5.61452 5.31154L7.28648 5.3283L7.28625 5.3341C7.53746 5.33667 7.79562 5.33429 8.05839 5.3308L8.07058 3.27919L9.28233 3.29045L9.2704 5.30264C9.59401 5.29842 9.91954 5.29538 10.2377 5.29903L10.2498 3.30076L11.4623 3.31184L11.4503 5.36423C13.0142 5.52021 14.2506 6.02828 14.3799 7.50941ZM12.6578 11.931C12.6672 10.3131 10.0897 10.5327 9.26753 10.5243L9.25253 13.2728C10.0743 13.2797 12.6508 13.4811 12.6591 11.9298L12.6578 11.931ZM12.1173 8.04597C12.1251 6.57359 9.9742 6.77729 9.29002 6.77086L9.27553 9.26508C9.95989 9.27229 12.1085 9.45707 12.1173 8.04597Z" fill="white"/>
</svg>
