<svg width="15" height="19" viewBox="0 0 15 19" fill="none" xmlns="http://www.w3.org/2000/svg">
<path fill-rule="evenodd" clip-rule="evenodd" d="M7.06444 4.20818C7.82862 4.59959 8.65803 4.73006 9.45017 4.73006C9.91614 5.15875 10.2982 5.65267 10.6617 6.16523C10.8108 6.37958 10.9506 6.60324 11.0624 6.83622C11.342 7.36742 11.547 7.93589 11.752 8.50437C11.808 8.67212 11.8732 8.83987 11.9384 9.00761C11.9571 9.08217 11.9757 9.1474 12.0037 9.22195C12.3205 10.3123 12.7865 11.4772 13.4109 12.4371C13.6159 12.754 13.8489 13.0522 14.1005 13.3318C14.1471 13.3877 14.203 13.4436 14.2496 13.4902C14.4919 13.7418 14.7249 13.9934 14.8647 14.301C15.0324 14.6924 15.0231 15.1397 14.9206 15.5591C14.436 17.5161 12.5535 18.0287 10.7549 18.0753C10.0839 18.0846 9.4129 18.038 8.81646 17.9821C8.81646 17.9821 5.95544 17.6839 3.52311 15.9132L3.44856 15.8573C3.16898 15.6429 2.89872 15.4193 2.63778 15.177C1.95747 14.5246 1.35172 13.7884 0.885755 12.9776L0.895075 12.9683C0.83916 12.8658 0.783243 12.7726 0.736647 12.6701C0.289322 11.7754 0.0190625 10.7969 0.000423896 9.76247C-0.0182147 8.01045 0.578219 6.23047 1.70585 4.93509C2.32092 4.2641 3.08511 3.7329 3.98908 3.43468C4.55755 3.2483 5.15398 3.1551 5.75042 3.16442C6.12319 3.59311 6.57052 3.94724 7.06444 4.20818ZM5.67587 15.5963C6.08591 15.4472 6.47732 15.2422 6.83146 14.9999C6.468 15.2422 6.07659 15.4472 5.67587 15.5963Z" fill="url(#paint0_linear_3765_47126)"/>
<path fill-rule="evenodd" clip-rule="evenodd" d="M13.0108 2.79163L13.0388 2.77299C9.84227 -2.67879 5.66724 1.6174 5.66724 1.6174L5.67656 1.62672C8.07161 5.83903 12.6381 3.02461 13.0108 2.79163Z" fill="url(#paint1_linear_3765_47126)"/>
<path d="M9.04977 12.1763C8.17376 14.2824 6.47765 15.671 4.43673 15.8853C4.39013 15.8946 3.83097 15.9319 3.52344 15.9133C5.95577 17.6839 8.81679 17.9822 8.81679 17.9822C9.43186 18.0474 10.1215 18.094 10.8204 18.0754C11.0627 17.4323 11.2025 16.7054 11.1652 15.8667C11.0721 13.9376 12.1904 12.9404 13.4112 12.4372C12.7868 11.4773 12.3208 10.3124 12.004 9.22205C11.0534 9.47367 9.85123 10.2658 9.04977 12.1763Z" fill="url(#paint2_linear_3765_47126)"/>
<path d="M11.1262 15.8573C11.1635 16.6868 10.9957 17.4416 10.7534 18.0846C12.552 18.038 14.4345 17.5255 14.9191 15.5684C15.0216 15.1584 15.031 14.7017 14.8632 14.3103C14.6955 13.9282 14.3786 13.6393 14.099 13.3318C13.8381 13.0429 13.5958 12.7261 13.3815 12.3906C12.1606 12.9031 11.033 13.9189 11.1262 15.8573Z" fill="url(#paint3_linear_3765_47126)"/>
<path d="M11.9369 9.00774C11.6573 8.27152 11.4243 7.52598 11.0702 6.83635C10.949 6.60337 10.8186 6.37971 10.6695 6.16536C10.306 5.6528 9.92392 5.14956 9.45796 4.73019C8.66582 4.73019 7.82708 4.59972 7.07222 4.20831C6.29872 5.29867 5.42271 7.1532 6.22417 9.26868C7.41703 12.3906 4.99402 14.5248 3.44702 15.8481L3.52158 15.904C3.81047 15.9226 4.10869 15.9226 4.39759 15.8947C6.44783 15.6803 8.22781 14.2545 9.11314 12.1577C9.9146 10.2472 11.0702 9.5203 12.0208 9.26868C11.9835 9.17549 11.9648 9.09162 11.9369 9.00774Z" fill="url(#paint4_linear_3765_47126)"/>
<path d="M1.78971 4.84186C0.606159 6.13724 -0.0182331 7.96382 0.000405441 9.75312C0.00972472 10.7876 0.289303 11.7661 0.736629 12.6607C0.801864 12.7912 0.876418 12.931 0.950972 13.0615C3.44854 10.5546 2.54457 6.82686 1.78971 4.84186Z" fill="url(#paint5_linear_3765_47126)"/>
<path d="M6.26443 9.26855C5.45365 7.15307 6.32035 5.30786 7.08453 4.2175C6.58129 3.95656 6.12464 3.60243 5.75187 3.16442C5.15544 3.1551 4.559 3.2483 3.99053 3.43468C3.08656 3.7329 2.31306 4.2641 1.7073 4.93509C2.44353 6.8735 3.31954 10.5267 0.887207 12.9776C1.35317 13.7884 1.95892 14.5246 2.63923 15.177C2.90949 15.4286 3.18907 15.6709 3.48729 15.8946C5.04361 14.5619 7.4573 12.3905 6.26443 9.26855Z" fill="url(#paint6_linear_3765_47126)"/>
<path d="M9.27408 1.96225C10.9609 2.62392 12.1444 2.81031 13.0018 2.78235L13.0298 2.76371C9.83324 -2.68807 5.6582 1.60812 5.6582 1.60812L5.66752 1.61744C6.56217 1.45901 7.87619 1.41242 9.27408 1.96225Z" fill="url(#paint7_linear_3765_47126)"/>
<path d="M9.29272 1.92478C7.89483 1.37495 6.57149 1.39358 5.6582 1.61725C8.06258 5.82956 12.6197 3.02446 13.0018 2.78216C12.1444 2.81011 10.9795 2.58645 9.29272 1.92478Z" fill="url(#paint8_linear_3765_47126)"/>
<defs>
<linearGradient id="paint0_linear_3765_47126" x1="-1.69565" y1="5.43605" x2="17.8345" y2="17.1395" gradientUnits="userSpaceOnUse">
<stop stop-color="#E54033"/>
<stop offset="0.4896" stop-color="#FECA1A"/>
<stop offset="1" stop-color="#AFD803"/>
</linearGradient>
<linearGradient id="paint1_linear_3765_47126" x1="3014.26" y1="3093.12" x2="1791.61" y2="1835.45" gradientUnits="userSpaceOnUse">
<stop offset="0.15" stop-color="#6CBF00"/>
<stop offset="1" stop-color="#AFD803"/>
</linearGradient>
<linearGradient id="paint2_linear_3765_47126" x1="1.50736" y1="16.0554" x2="13.7452" y2="13.0797" gradientUnits="userSpaceOnUse">
<stop offset="0.21" stop-color="#E54033"/>
<stop offset="0.84" stop-color="#FECA1A"/>
</linearGradient>
<linearGradient id="paint3_linear_3765_47126" x1="11.1472" y1="15.2295" x2="14.9233" y2="15.2578" gradientUnits="userSpaceOnUse">
<stop stop-color="#FECA1A"/>
<stop offset="0.4" stop-color="#FECA1A"/>
<stop offset="1" stop-color="#AFD803"/>
</linearGradient>
<linearGradient id="paint4_linear_3765_47126" x1="2.6001" y1="16.1317" x2="10.342" y2="5.65054" gradientUnits="userSpaceOnUse">
<stop offset="0.16" stop-color="#E54033"/>
<stop offset="0.84" stop-color="#FECA1A"/>
</linearGradient>
<linearGradient id="paint5_linear_3765_47126" x1="1.47383" y1="5.71692" x2="1.131" y2="12.4867" gradientUnits="userSpaceOnUse">
<stop stop-color="#FECA1A"/>
<stop offset="0.76" stop-color="#E54033"/>
</linearGradient>
<linearGradient id="paint6_linear_3765_47126" x1="5.26252" y1="3.95902" x2="3.19488" y2="11.8103" gradientUnits="userSpaceOnUse">
<stop offset="0.16" stop-color="#FECA1A"/>
<stop offset="1" stop-color="#E54033"/>
</linearGradient>
<linearGradient id="paint7_linear_3765_47126" x1="6.06303" y1="0.199875" x2="13.7186" y2="3.0217" gradientUnits="userSpaceOnUse">
<stop offset="0.15" stop-color="#6CBF00"/>
<stop offset="1" stop-color="#AFD803"/>
</linearGradient>
<linearGradient id="paint8_linear_3765_47126" x1="3014.14" y1="3093.2" x2="1791.5" y2="1835.54" gradientUnits="userSpaceOnUse">
<stop offset="0.15" stop-color="#6CBF00"/>
<stop offset="1" stop-color="#AFD803"/>
</linearGradient>
</defs>
</svg>
