<svg width="24" height="24" viewBox="0 0 24 24" fill="none" xmlns="http://www.w3.org/2000/svg">
<path d="M20.3976 3.99438L12.8408 9.41639L14.2461 6.22103L20.3976 3.99438Z" fill="#E17726"/>
<path d="M3.62012 4.00085L9.75514 6.22152L11.0895 9.45878L3.62012 4.00085Z" fill="#E27625"/>
<path d="M17.3559 15.5255L20.6959 15.5872L19.5286 19.4324L15.4531 18.3443L17.3559 15.5255Z" fill="#E27625"/>
<path d="M6.64361 15.5255L8.53936 18.3443L4.47071 19.4324L3.31055 15.5872L6.64361 15.5255Z" fill="#E27625"/>
<path d="M10.9087 8.63416L11.0452 12.9091L6.96094 12.7289L8.12269 11.0293L8.13739 11.0129L10.9087 8.63416Z" fill="#E27625"/>
<path d="M13.0495 8.58643L15.8631 11.013L15.8776 11.0293L17.0394 12.7289L12.9561 12.909L13.0495 8.58643Z" fill="#E27625"/>
<path d="M8.65928 15.5378L10.8894 17.2228L8.29883 18.4357L8.65928 15.5378Z" fill="#E27625"/>
<path d="M15.3417 15.5376L15.6947 18.4357L13.1113 17.2227L15.3417 15.5376Z" fill="#E27625"/>
<path d="M13.168 17.064L15.7895 18.2949L13.3509 19.4187L13.3763 18.6759L13.168 17.064Z" fill="#D5BFB2"/>
<path d="M10.8311 17.0646L10.6309 18.6638L10.6474 19.4179L8.20312 18.2949L10.8311 17.0646Z" fill="#D5BFB2"/>
<path d="M10.075 13.467L10.7601 14.8631L8.42773 14.2006L10.075 13.467Z" fill="#233447"/>
<path d="M13.9251 13.467L15.5801 14.2004L13.2402 14.8628L13.9251 13.467Z" fill="#233447"/>
<path d="M8.83711 15.5236L8.4601 18.5281L6.43945 15.5892L8.83711 15.5236Z" fill="#CC6228"/>
<path d="M15.1631 15.5236L17.5608 15.5892L15.5326 18.5282L15.1631 15.5236Z" fill="#CC6228"/>
<path d="M17.0981 12.559L15.3532 14.2834L14.0078 13.6873L13.3637 15.0003L12.9414 12.7423L17.0981 12.559Z" fill="#CC6228"/>
<path d="M6.90039 12.5588L11.0578 12.7423L10.6356 15.0003L9.99131 13.6873L8.65304 14.2834L6.90039 12.5588Z" fill="#CC6228"/>
<path d="M6.7832 12.2051L8.75744 14.1477L8.82586 16.0655L6.7832 12.2051Z" fill="#E27525"/>
<path d="M17.2192 12.2015L15.1729 16.0688L15.2499 14.1476L17.2192 12.2015Z" fill="#E27525"/>
<path d="M10.9621 12.3234L11.0415 12.8083L11.2379 14.0165L11.1116 17.7272L10.5148 14.7463L10.5146 14.7155L10.9621 12.3234Z" fill="#E27525"/>
<path d="M13.0374 12.3168L13.486 14.7156L13.4858 14.7464L12.8875 17.7347L12.8639 16.9873L12.7705 13.9946L13.0374 12.3168Z" fill="#E27525"/>
<path d="M15.425 14.0704L15.3581 15.7367L13.2755 17.3101L12.8545 17.0217L13.3264 14.6645L15.425 14.0704Z" fill="#F5841F"/>
<path d="M8.58203 14.0704L10.6733 14.6645L11.1452 17.0217L10.7242 17.3101L8.64147 15.7365L8.58203 14.0704Z" fill="#F5841F"/>
<path d="M7.80469 17.927L10.4692 19.1512L10.4579 18.6285L10.6808 18.4387H13.3179L13.5489 18.6278L13.5319 19.1502L16.1795 17.9301L14.8912 18.9624L13.3333 20H10.6595L9.10264 18.9582L7.80469 17.927Z" fill="#C0AC9D"/>
<path d="M12.9773 16.9011L13.354 17.1592L13.5748 18.8672L13.2553 18.6056H10.746L10.4326 18.8725L10.6461 17.1593L11.023 16.9011H12.9773Z" fill="#161616"/>
<path d="M19.8989 4.14453L20.8059 6.78335L20.2395 9.45144L20.6428 9.75321L20.097 10.1571L20.5072 10.4643L19.964 10.944L20.2975 11.1782L19.4124 12.1806L15.7822 11.1556L15.7508 11.1393L13.1348 8.99936L19.8989 4.14453Z" fill="#763E1A"/>
<path d="M4.10144 4.14453L10.8655 8.99936L8.24955 11.1393L8.21809 11.1556L4.58786 12.1806L3.7028 11.1782L4.03604 10.9442L3.49307 10.4643L3.90253 10.1574L3.34852 9.75239L3.76713 9.45044L3.19434 6.78344L4.10144 4.14453Z" fill="#763E1A"/>
<path d="M15.6042 10.9315L19.4506 12.0175L20.7003 15.7522L17.4034 15.7521L15.1318 15.7799L16.7838 12.6575L15.6042 10.9315Z" fill="#F5841F"/>
<path d="M8.39577 10.9315L7.21589 12.6575L8.86812 15.7799L6.59762 15.7522H3.30664L4.54927 12.0175L8.39577 10.9315Z" fill="#F5841F"/>
<path d="M14.4348 6.20325L13.3589 9.02093L13.1306 12.8274L13.0433 14.0204L13.0363 17.0682H10.9649L10.9582 14.0261L10.8705 12.8263L10.6421 9.02093L9.56641 6.20325H14.4348Z" fill="#F5841F"/>
</svg>
