<svg width="19" height="16" viewBox="0 0 19 16" fill="none" xmlns="http://www.w3.org/2000/svg">
<path d="M18.9022 12.6149L15.7656 15.7821C15.6974 15.8509 15.6149 15.9057 15.5233 15.9432C15.4316 15.9807 15.3327 16.0001 15.2328 16H0.364128C0.293181 16 0.22378 15.9805 0.164454 15.9439C0.105126 15.9072 0.058456 15.8551 0.0301772 15.7938C0.00189855 15.7325 -0.00675687 15.6648 0.00527451 15.599C0.0173059 15.5332 0.0494999 15.4721 0.0979011 15.4232L3.23679 12.256C3.30479 12.1874 3.38702 12.1326 3.47839 12.0952C3.56978 12.0577 3.66835 12.0383 3.76804 12.0381H18.6359C18.7068 12.0381 18.7762 12.0576 18.8356 12.0942C18.8948 12.1309 18.9415 12.183 18.9699 12.2443C18.9981 12.3056 19.0068 12.3733 18.9947 12.4391C18.9827 12.5049 18.9505 12.566 18.9022 12.6149ZM15.7656 6.23695C15.6974 6.16815 15.6149 6.11329 15.5233 6.0758C15.4316 6.03833 15.3327 6.019 15.2328 6.01905H0.364128C0.293181 6.01905 0.22378 6.03856 0.164454 6.0752C0.105126 6.11184 0.058456 6.16398 0.0301772 6.22524C0.00189855 6.28651 -0.00675687 6.35422 0.00527451 6.42005C0.0173059 6.48587 0.0494999 6.54696 0.0979011 6.59582L3.23679 9.76305C3.30479 9.83167 3.38702 9.8864 3.47839 9.92389C3.56978 9.96136 3.66835 9.9808 3.76804 9.98095H18.6359C18.7068 9.98095 18.7762 9.96144 18.8356 9.9248C18.8948 9.88816 18.9415 9.83602 18.9699 9.77476C18.9981 9.71349 19.0068 9.64578 18.9947 9.57995C18.9827 9.51413 18.9505 9.45304 18.9022 9.40418L15.7656 6.23695ZM0.364128 3.96191H15.2328C15.3327 3.96195 15.4316 3.94264 15.5233 3.90515C15.6149 3.86765 15.6974 3.8128 15.7656 3.744L18.9022 0.576762C18.9505 0.527922 18.9827 0.466833 18.9947 0.401C19.0068 0.335167 18.9981 0.26746 18.9699 0.206196C18.9415 0.144933 18.8948 0.0927811 18.8356 0.0561496C18.7762 0.019518 18.7068 2.25589e-06 18.6359 0H3.76804C3.66835 0.000159709 3.56978 0.0195816 3.47839 0.0570633C3.38702 0.0945451 3.30479 0.149289 3.23679 0.217905L0.0987102 3.38515C0.0503558 3.43393 0.018176 3.49496 0.00611734 3.56071C-0.00594133 3.62647 0.0026454 3.69413 0.0308244 3.75536C0.0590034 3.8166 0.10555 3.86875 0.164755 3.90544C0.223961 3.94213 0.293251 3.96175 0.364128 3.96191Z" fill="url(#paint0_linear_3769_72903)"/>
<defs>
<linearGradient id="paint0_linear_3769_72903" x1="1.60382" y1="16.3813" x2="16.154" y2="-1.03893" gradientUnits="userSpaceOnUse">
<stop offset="0.08" stop-color="#9945FF"/>
<stop offset="0.3" stop-color="#8752F3"/>
<stop offset="0.5" stop-color="#5497D5"/>
<stop offset="0.6" stop-color="#43B4CA"/>
<stop offset="0.72" stop-color="#28E0B9"/>
<stop offset="0.97" stop-color="#19FB9B"/>
</linearGradient>
</defs>
</svg>
