<svg width="20" height="20" viewBox="0 0 20 20" fill="none" xmlns="http://www.w3.org/2000/svg">
<path d="M10 20C15.5417 20 20 15.5417 20 10C20 4.4583 15.5417 0 10 0C4.4583 0 0 4.4583 0 10C0 15.5417 4.4583 20 10 20Z" fill="#2775CA"/>
<path d="M13.1146 11.5112C13.1146 9.86559 12.1351 9.30135 10.1759 9.06629C8.77649 8.87817 8.49661 8.50205 8.49661 7.8437C8.49661 7.18534 8.96311 6.76228 9.89601 6.76228C10.7357 6.76228 11.2022 7.0444 11.4354 7.74969C11.482 7.89075 11.622 7.98476 11.7619 7.98476H12.5082C12.6948 7.98476 12.8348 7.8437 12.8348 7.65569V7.60863C12.6481 6.57416 11.8085 5.77486 10.7357 5.68086V4.55238C10.7357 4.36426 10.5957 4.2232 10.3625 4.17615H9.66281C9.47619 4.17615 9.33625 4.31721 9.28957 4.55238V5.6338C7.89017 5.82192 7.00395 6.76228 7.00395 7.93781C7.00395 9.48947 7.93685 10.1007 9.89601 10.3358C11.2022 10.5709 11.622 10.853 11.622 11.6054C11.622 12.3577 10.9688 12.8749 10.0826 12.8749C8.86975 12.8749 8.44993 12.3576 8.30999 11.6523C8.26341 11.4643 8.12347 11.3702 7.98353 11.3702H7.19047C7.00395 11.3702 6.86401 11.5112 6.86401 11.6994V11.7464C7.05053 12.9218 7.79691 13.7682 9.33625 14.0034V15.1319C9.33625 15.3199 9.47619 15.4609 9.70939 15.508H10.4091C10.5957 15.508 10.7357 15.3669 10.7823 15.1319V14.0034C12.1817 13.7682 13.1146 12.7808 13.1146 11.5112Z" fill="white"/>
<path d="M7.6569 16.4483C4.01846 15.1319 2.15255 11.0411 3.50538 7.42053C4.20508 5.44569 5.74442 3.9411 7.6569 3.2358C7.84352 3.1418 7.93678 3.00074 7.93678 2.76556V2.10732C7.93678 1.91921 7.84352 1.77815 7.6569 1.7312C7.61021 1.7312 7.51696 1.7312 7.47027 1.77815C3.03888 3.18874 0.61321 7.93782 2.01261 12.4047C2.85225 15.0377 4.8581 17.0596 7.47027 17.906C7.6569 18 7.84352 17.906 7.89009 17.7179C7.93678 17.6709 7.93678 17.6239 7.93678 17.5299V16.8715C7.93678 16.7305 7.79684 16.5425 7.6569 16.4483ZM12.6015 1.77815C12.4149 1.68414 12.2282 1.77815 12.1817 1.96626C12.135 2.01332 12.135 2.06026 12.135 2.15438V2.81262C12.135 3.00074 12.2749 3.18874 12.4149 3.28286C16.0533 4.59934 17.9192 8.69006 16.5664 12.3107C15.8667 14.2855 14.3273 15.7901 12.4149 16.4954C12.2282 16.5894 12.135 16.7305 12.135 16.9656V17.6239C12.135 17.812 12.2282 17.9531 12.4149 18C12.4615 18 12.5548 18 12.6015 17.9531C17.0329 16.5425 19.4585 11.7934 18.0591 7.32653C17.2195 4.64639 15.167 2.6245 12.6015 1.77815Z" fill="white"/>
</svg>
