<svg width="20" height="20" viewBox="0 0 20 20" fill="none" xmlns="http://www.w3.org/2000/svg">
<path d="M10 20C15.5228 20 20 15.5228 20 10C20 4.47715 15.5228 0 10 0C4.47715 0 0 4.47715 0 10C0 15.5228 4.47715 20 10 20Z" fill="#26A17B"/>
<path fill-rule="evenodd" clip-rule="evenodd" d="M11.2013 10.8644V10.8632C11.1325 10.8682 10.7781 10.8894 9.9875 10.8894C9.35625 10.8894 8.91187 10.8707 8.75562 10.8632V10.865C6.32562 10.7582 4.51187 10.335 4.51187 9.82878C4.51187 9.32315 6.32562 8.90003 8.75562 8.79128V10.4438C8.91437 10.455 9.36937 10.4819 9.99812 10.4819C10.7525 10.4819 11.1306 10.4507 11.2013 10.4444V8.79253C13.6263 8.90065 15.4356 9.32378 15.4356 9.82878C15.4356 10.335 13.6263 10.7569 11.2013 10.8644ZM11.2013 8.62065V7.1419H14.585V4.8869H5.37188V7.1419H8.75562V8.62003C6.00562 8.74628 3.9375 9.29128 3.9375 9.94378C3.9375 10.5963 6.00562 11.1407 8.75562 11.2675V16.0063H11.2013V11.2663C13.9469 11.14 16.01 10.5957 16.01 9.94378C16.01 9.2919 13.9469 8.74753 11.2013 8.62065Z" fill="white"/>
</svg>
